<?xml version="1.0" standalone="no"?>
<!DOCTYPE svg PUBLIC "-//W3C//DTD SVG 20010904//EN"
 "http://www.w3.org/TR/2001/REC-SVG-20010904/DTD/svg10.dtd">
<svg version="1.0" xmlns="http://www.w3.org/2000/svg"
 width="630.000000pt" height="630.000000pt" viewBox="0 0 630.000000 630.000000"
 preserveAspectRatio="xMidYMid meet">
<metadata>
Created by potrace 1.11, written by Peter Selinger 2001-2013
</metadata>
<g transform="translate(0.000000,630.000000) scale(0.100000,-0.100000)"
fill="#000000" stroke="none">
<path d="M464 6268 c2 -15 0 -28 -6 -28 -7 0 -7 -4 0 -13 6 -7 7 -18 3 -25 -4
-6 -4 -37 -1 -67 3 -31 2 -55 -3 -55 -5 0 -5 -6 1 -13 6 -7 7 -18 3 -25 -4 -7
-5 -33 -1 -57 4 -24 3 -48 -3 -54 -5 -5 -5 -11 2 -15 8 -5 8 -13 1 -27 -6 -10
-7 -19 -3 -19 4 0 8 -16 8 -35 0 -19 -3 -35 -8 -35 -5 0 -5 -6 1 -13 6 -7 7
-19 3 -26 -5 -7 -5 -28 -1 -47 5 -21 4 -34 -2 -34 -7 0 -7 -4 0 -13 6 -7 7
-19 3 -26 -5 -7 -5 -28 -1 -47 5 -21 4 -34 -2 -34 -7 0 -7 -4 0 -13 6 -7 7
-18 2 -27 -4 -7 -4 -23 0 -35 5 -14 4 -27 -2 -33 -6 -6 -6 -12 1 -16 8 -5 8
-13 1 -27 -6 -10 -7 -19 -3 -19 4 0 8 -25 8 -55 0 -30 -4 -55 -9 -55 -5 0 -4
-6 2 -13 6 -7 7 -18 3 -25 -4 -6 -4 -37 -1 -67 4 -34 2 -55 -4 -55 -6 0 -5 -5
2 -12 8 -8 8 -17 0 -31 -7 -15 -7 -22 3 -28 8 -5 10 -9 5 -9 -5 0 -3 -6 3 -14
9 -11 9 -16 0 -22 -8 -5 -9 -3 -4 6 5 9 4 11 -4 6 -9 -6 -9 -11 1 -24 8 -10 9
-13 1 -9 -7 4 -14 -1 -18 -14 -6 -17 -9 -19 -16 -8 -7 11 -9 10 -9 -3 0 -10
-5 -18 -11 -18 -6 0 -9 -7 -5 -15 3 -8 1 -15 -3 -15 -5 0 -12 6 -14 13 -3 6
-6 2 -6 -10 -1 -16 -6 -21 -16 -17 -11 5 -13 2 -8 -12 4 -10 2 -15 -4 -11 -11
7 -44 -28 -35 -38 4 -4 2 -5 -3 -3 -17 5 -86 -64 -80 -80 5 -12 3 -13 -10 -2
-13 11 -14 10 -9 -5 5 -12 4 -16 -3 -12 -10 7 -17 -1227 -6 -1265 2 -10 9 -18
14 -18 6 0 8 4 5 8 -3 5 6 16 19 26 14 10 22 22 19 27 -3 5 1 9 9 9 8 0 18 7
21 16 3 8 11 12 16 9 6 -4 9 -3 8 2 -5 14 42 54 55 46 7 -4 7 0 -2 10 -12 15
-11 17 3 17 10 0 14 5 11 10 -3 6 -1 10 5 10 15 0 40 25 40 41 0 8 4 8 15 -1
13 -11 15 -10 9 6 -5 15 -4 16 5 4 6 -9 6 -19 1 -24 -5 -5 -5 -18 0 -31 5 -13
6 -25 4 -28 -8 -8 -12 -57 -5 -57 3 0 6 -11 6 -25 0 -14 -4 -25 -10 -25 -5 0
-4 -5 2 -11 8 -8 8 -20 3 -35 -5 -13 -6 -24 -2 -24 4 0 7 -16 7 -35 0 -19 -4
-35 -9 -35 -5 0 -4 -6 2 -13 6 -7 7 -18 3 -25 -4 -6 -4 -37 -1 -67 3 -31 2
-55 -3 -55 -5 0 -5 -6 1 -13 6 -7 7 -19 3 -26 -5 -7 -5 -28 -1 -47 5 -21 4
-34 -2 -34 -7 0 -7 -4 0 -13 6 -7 7 -19 3 -26 -5 -7 -5 -28 -1 -47 5 -21 4
-34 -2 -34 -7 0 -7 -4 0 -13 6 -7 7 -19 3 -26 -5 -7 -5 -28 -1 -47 5 -21 4
-34 -2 -34 -7 0 -7 -4 0 -13 7 -8 7 -18 2 -27 -5 -9 -5 -19 2 -27 7 -9 7 -13
-2 -13 -9 0 -9 -4 -2 -13 6 -7 7 -19 3 -26 -5 -7 -5 -28 -1 -47 5 -21 4 -34
-2 -34 -7 0 -7 -4 0 -13 6 -7 7 -19 3 -26 -5 -7 -5 -28 -1 -47 5 -21 4 -34 -2
-34 -7 0 -6 -5 1 -13 6 -8 8 -16 6 -19 -10 -10 -14 -49 -4 -43 5 4 9 -3 9 -15
0 -12 -4 -18 -10 -15 -5 3 -10 1 -10 -5 0 -13 -49 -60 -61 -60 -5 0 -8 -6 -6
-12 1 -7 -4 -12 -12 -10 -8 2 -11 -3 -8 -12 4 -9 3 -15 -2 -13 -9 3 -125 -115
-123 -125 1 -4 -6 -4 -15 -1 -10 4 -14 2 -9 -5 3 -6 2 -13 -2 -16 -13 -8 -10
-1282 3 -1276 6 3 9 11 9 17 -1 7 2 10 8 7 12 -7 39 16 32 27 -3 5 2 9 11 9 9
0 14 4 11 9 -3 4 6 13 20 20 14 6 23 15 19 20 -3 5 4 12 15 16 11 3 20 13 20
21 0 8 3 13 8 11 8 -2 57 44 57 55 0 17 21 27 35 17 12 -9 11 -10 -4 -5 -14 5
-16 3 -8 -6 14 -17 18 -50 9 -65 -5 -8 -3 -13 3 -13 7 0 8 -6 2 -16 -5 -9 -6
-32 -2 -50 5 -21 4 -34 -2 -34 -7 0 -7 -4 0 -13 7 -8 7 -18 2 -27 -5 -9 -5
-19 2 -27 7 -9 7 -13 -2 -13 -9 0 -9 -4 -2 -13 6 -7 7 -19 3 -26 -5 -7 -5 -28
-1 -47 5 -21 4 -34 -2 -34 -7 0 -7 -4 0 -13 6 -7 7 -19 3 -26 -5 -7 -5 -28 -1
-47 5 -21 4 -34 -2 -34 -7 0 -7 -4 0 -13 6 -7 7 -19 3 -26 -5 -7 -5 -28 -1
-47 5 -21 4 -34 -2 -34 -7 0 -7 -4 0 -13 6 -7 7 -18 3 -25 -4 -6 -4 -37 -1
-67 3 -31 2 -55 -3 -55 -5 0 -4 -6 2 -13 6 -8 8 -17 4 -20 -10 -10 18 -38 31
-30 16 10 39 10 53 -1 9 -5 13 -4 13 4 0 8 4 9 12 3 15 -11 28 -11 45 0 6 4
14 3 18 -3 4 -6 12 -7 18 -3 17 10 40 10 55 -1 8 -5 12 -4 12 4 0 8 4 9 13 3
10 -8 32 -10 40 -3 7 5 67 4 67 -2 0 -4 9 -5 19 -3 14 3 18 -1 14 -11 -5 -13
-17 -18 -36 -15 -5 1 -6 -3 -3 -8 3 -5 -1 -12 -10 -15 -8 -3 -12 -10 -9 -16 3
-5 -1 -10 -9 -10 -9 0 -16 -4 -16 -8 0 -5 -7 -17 -16 -28 -8 -10 -12 -13 -8
-5 5 10 3 12 -5 7 -7 -5 -10 -15 -7 -23 3 -8 2 -12 -3 -9 -12 8 -63 -33 -56
-45 4 -5 -1 -9 -10 -9 -9 0 -14 -4 -11 -9 3 -4 -6 -13 -20 -20 -14 -6 -23 -15
-20 -20 3 -4 296 -8 651 -8 355 0 643 2 641 5 -7 7 21 32 36 32 10 0 9 3 -2
10 -13 9 -13 10 0 10 16 0 56 40 52 52 -1 4 6 4 15 1 10 -4 14 -2 10 4 -4 6 0
14 9 17 8 3 12 10 9 16 -4 6 1 7 11 3 10 -3 15 -2 12 3 -8 12 17 35 28 26 4
-4 4 1 1 11 -4 11 -3 16 3 12 6 -3 13 1 16 9 3 8 14 18 25 21 11 4 17 10 14
15 -7 11 36 25 44 14 6 -8 22 -10 46 -4 25 6 41 5 53 -4 7 -5 12 -4 12 3 0 7
5 9 12 5 17 -11 48 -12 48 -3 0 9 20 7 37 -4 6 -4 15 -3 18 3 4 7 12 7 18 2
11 -8 25 -8 45 -2 18 6 38 5 50 -4 7 -5 12 -4 12 3 0 7 5 9 12 5 17 -11 48
-12 48 -3 0 9 20 7 37 -4 6 -4 15 -3 18 3 4 7 12 7 18 2 11 -8 25 -8 45 -2 18
6 38 5 50 -4 7 -5 12 -4 12 3 0 7 5 9 13 4 17 -11 36 -12 42 -3 2 4 17 5 32 3
36 -6 52 -6 86 1 17 3 27 0 27 -7 0 -8 3 -8 8 -2 4 6 25 10 47 10 22 0 49 4
60 9 18 8 19 8 6 -8 -12 -14 -12 -16 3 -10 9 3 16 11 16 16 0 6 6 5 15 -2 12
-10 15 -10 15 0 0 10 3 10 14 1 11 -9 16 -9 22 0 5 8 3 9 -6 4 -8 -5 -11 -4
-6 3 4 6 13 9 21 6 8 -4 12 -11 8 -18 -5 -8 -3 -8 8 1 8 6 31 10 52 9 21 -1
41 2 43 6 2 3 17 3 32 -1 33 -10 55 -4 45 12 -4 7 1 6 10 -2 13 -10 17 -10 17
-1 0 7 7 10 15 6 8 -3 15 0 15 7 0 8 3 8 9 -2 5 -8 15 -10 22 -6 8 4 -3 -9
-25 -28 -21 -20 -35 -40 -32 -46 4 -7 1 -8 -8 -5 -11 4 -16 0 -16 -11 0 -9 -4
-14 -9 -11 -5 3 -12 -1 -15 -10 -3 -8 -11 -12 -16 -9 -6 4 -9 3 -8 -2 4 -10
-21 -43 -46 -63 -16 -12 -18 -12 -11 -1 5 10 4 12 -3 7 -7 -4 -12 -12 -12 -19
0 -6 -12 -21 -26 -33 l-25 -23 58 5 c32 3 64 6 71 6 6 1 12 5 12 10 0 11 23 6
32 -7 5 -6 8 -5 8 3 0 7 5 10 10 7 6 -3 10 -1 10 6 0 9 3 9 14 0 10 -8 16 -9
21 -1 3 6 10 8 15 5 5 -3 11 -1 15 5 4 6 11 7 17 4 6 -4 14 0 19 7 7 11 9 11
9 1 0 -10 5 -10 20 -2 11 6 20 8 20 4 0 -3 7 -1 15 6 8 6 19 9 25 5 5 -3 10
-2 10 2 0 5 8 10 18 11 66 7 79 10 100 21 15 8 22 8 22 1 0 -6 5 -8 10 -5 6 4
7 11 4 17 -5 7 -1 9 9 5 10 -4 17 -1 17 6 0 9 3 8 9 -1 6 -11 10 -10 15 3 5
13 9 15 20 6 10 -9 15 -8 19 3 4 9 14 12 28 9 17 -5 20 -3 14 7 -6 10 -4 12 7
7 9 -3 21 0 28 6 10 9 11 9 6 -3 -6 -12 -5 -11 6 1 7 9 21 15 31 13 9 -1 17 2
17 8 0 6 9 8 20 5 11 -3 18 -2 16 2 -3 4 4 13 16 20 11 7 17 8 13 2 -3 -6 -1
-11 4 -11 6 0 11 5 11 11 0 5 4 7 10 4 6 -3 10 -1 10 5 0 6 5 8 12 4 8 -5 9
-2 4 11 -5 15 -4 16 8 6 11 -9 15 -9 19 1 4 11 6 11 6 0 1 -10 4 -10 15 0 8 7
12 17 9 21 -3 5 4 4 16 -2 17 -10 21 -9 21 4 0 9 9 15 25 15 14 0 28 7 31 15
5 12 9 13 21 4 11 -10 13 -9 11 2 -2 8 5 14 17 14 11 1 19 7 17 13 -1 8 5 12
15 10 12 -2 17 2 15 12 -2 8 0 12 4 8 4 -4 13 -3 21 4 7 6 16 8 19 5 4 -3 15
4 26 16 11 12 17 16 13 10 -3 -7 -1 -13 4 -13 11 0 15 15 11 35 -1 6 4 5 11
-2 9 -9 18 -6 38 13 14 13 32 22 39 19 6 -2 12 3 12 11 0 8 5 12 10 9 6 -3 13
1 16 10 4 9 13 14 20 11 13 -5 19 6 15 28 -1 5 4 5 11 -1 9 -7 18 -5 30 8 9 9
13 20 10 24 -4 3 1 3 10 0 11 -5 22 2 34 20 9 14 23 24 30 21 13 -5 19 6 15
28 -1 5 5 3 14 -4 13 -11 15 -10 9 6 -4 10 -4 16 1 12 4 -4 15 1 24 10 10 11
12 12 6 2 -9 -13 -8 -13 8 -1 9 7 17 20 17 28 0 8 5 11 10 8 6 -3 10 -1 10 6
0 7 3 10 6 6 10 -10 32 17 26 33 -3 8 -2 12 3 8 12 -11 45 11 45 30 0 15 2 15
10 2 8 -13 10 -12 10 3 0 9 8 17 18 17 14 0 15 2 2 10 -8 5 -12 10 -7 11 4 1
10 2 15 3 12 2 62 56 62 67 0 6 4 8 8 5 5 -3 16 8 26 25 9 16 21 29 27 29 5 0
9 7 9 15 0 9 6 12 15 9 11 -4 13 -2 9 9 -4 10 4 21 23 32 15 9 19 14 9 10 -16
-5 -17 -3 -6 10 7 8 16 12 21 9 5 -3 6 3 2 12 -5 13 -3 16 10 11 9 -3 16 -3
16 1 -4 22 2 32 14 26 7 -5 7 -2 -2 10 -12 15 -12 17 0 14 8 -2 13 3 11 10 -1
6 4 11 10 10 7 -2 12 3 10 10 -1 7 5 15 13 18 8 3 12 10 9 15 -3 5 0 9 6 9 6
0 8 5 5 10 -3 5 1 10 10 10 9 0 14 4 10 9 -3 5 0 15 7 23 7 7 19 25 27 40 8
15 19 25 24 21 6 -3 7 -1 3 5 -9 15 18 55 29 44 5 -4 6 -2 3 3 -8 14 10 57 20
51 5 -3 7 6 4 21 -3 16 -1 24 5 20 6 -4 16 11 23 33 7 22 17 37 21 34 4 -2 6
5 4 16 -2 11 1 20 6 20 6 0 7 4 4 10 -3 5 -1 10 4 10 6 0 11 5 11 12 0 6 8 20
18 31 9 11 11 17 5 13 -7 -4 -13 -2 -13 3 0 6 5 11 11 11 7 0 9 9 6 21 -4 16
-2 19 11 14 9 -3 13 -3 9 1 -4 4 -1 14 6 22 10 13 9 14 -3 7 -13 -8 -13 -6 -1
8 7 9 11 23 7 32 -3 8 0 14 6 12 7 -1 16 17 21 40 6 24 14 43 20 43 5 0 3 8
-4 17 -10 11 -10 14 -1 9 11 -6 17 5 13 27 0 4 3 7 7 7 5 0 8 13 7 30 -1 16 2
27 5 25 4 -3 10 4 13 15 3 11 1 18 -4 14 -5 -3 -6 2 -3 10 3 9 10 16 14 16 5
0 7 9 5 20 -2 11 0 20 4 20 5 0 8 10 7 22 -1 13 5 29 14 36 8 8 9 11 3 7 -16
-8 -18 21 -2 30 6 4 8 13 5 21 -3 8 -2 14 3 14 5 0 7 11 6 25 -2 18 2 25 13
25 15 0 15 2 2 10 -13 9 -13 11 0 20 13 9 13 10 0 10 -12 0 -12 2 -1 9 9 6 10
10 2 16 -9 5 -9 10 -1 20 7 8 9 18 6 24 -3 5 1 12 10 15 9 3 12 11 8 18 -11
17 -12 48 -3 48 4 0 6 9 4 20 -2 11 1 20 7 20 7 0 7 4 -1 13 -6 8 -8 17 -4 21
4 4 1 12 -7 17 -12 8 -12 9 4 7 12 -2 20 4 22 15 4 26 23 46 58 63 17 8 23 12
14 10 -12 -4 -15 -1 -11 10 3 8 8 12 11 10 3 -3 11 2 19 12 9 10 11 11 7 2 -7
-13 -6 -13 10 -1 9 8 15 20 12 27 -3 9 0 11 11 7 11 -4 14 -2 9 5 -4 7 -2 13
3 13 6 1 15 2 20 3 5 0 13 5 18 10 5 5 3 6 -4 2 -8 -5 -13 -1 -13 10 0 10 3
15 6 11 4 -3 14 2 23 11 10 11 12 12 6 2 -5 -8 5 -1 23 15 18 17 37 40 42 53
6 14 15 20 22 16 8 -5 9 -2 5 9 -3 9 -2 19 4 23 6 4 6 11 -2 20 -9 11 -9 14 0
14 8 0 9 5 2 18 -6 11 -6 24 -1 32 5 9 4 20 -3 29 -10 12 -9 14 4 9 12 -5 15
-1 13 17 -1 13 -5 28 -8 34 -3 5 0 12 6 14 7 3 4 6 -7 7 -18 1 -19 1 -2 11 9
5 17 15 17 20 0 6 -5 7 -12 3 -8 -5 -8 -3 -2 7 10 16 16 371 6 365 -4 -2 -7
18 -7 44 0 30 4 46 10 42 5 -3 3 5 -6 19 -12 18 -14 30 -7 42 6 11 5 17 -2 17
-8 0 -8 6 0 20 8 14 8 20 0 20 -7 0 -8 6 -1 18 7 13 7 22 0 29 -5 5 -11 26
-12 46 -1 21 -6 37 -12 37 -7 0 -7 3 0 8 13 9 15 52 3 52 -5 0 -6 5 -3 10 3 6
1 10 -4 10 -6 0 -11 5 -11 11 0 5 5 7 11 3 8 -5 8 -1 0 13 -6 11 -7 23 -4 27
3 3 2 6 -3 6 -5 0 -10 12 -11 28 -5 62 -16 112 -27 121 -8 6 -23 -1 -48 -23
-21 -19 -34 -36 -31 -40 3 -3 -1 -6 -10 -6 -10 0 -17 -7 -17 -15 0 -9 -6 -12
-17 -8 -12 5 -15 2 -10 -10 4 -11 -1 -18 -14 -22 -10 -4 -17 -11 -14 -16 4 -5
1 -9 -6 -9 -13 0 -59 -46 -59 -60 0 -5 -9 -7 -21 -5 -17 4 -19 2 -9 -10 10
-11 10 -15 1 -15 -7 0 -9 -5 -5 -12 5 -9 2 -9 -9 1 -11 8 -17 9 -17 3 0 -6 -7
-9 -16 -5 -11 4 -12 8 -4 13 7 5 8 14 1 33 -6 15 -8 27 -5 27 3 0 -2 7 -10 16
-12 11 -13 20 -6 33 6 13 5 24 -6 37 -9 11 -12 12 -8 4 4 -8 3 -11 -1 -7 -11
9 -16 39 -6 33 4 -3 7 4 7 14 0 10 -5 16 -10 13 -5 -4 -7 1 -3 10 4 10 2 16
-5 14 -15 -3 -18 23 -5 41 7 9 6 11 -6 6 -12 -4 -15 -1 -12 15 2 12 -1 21 -7
21 -5 0 -8 7 -4 15 3 8 2 15 -3 15 -5 0 -14 20 -20 45 -6 25 -16 45 -22 45 -6
0 -8 9 -4 20 3 11 3 20 -2 20 -4 0 -14 9 -21 21 -9 14 -10 19 -2 14 9 -6 9 -2
0 14 -6 12 -16 19 -23 15 -9 -5 -9 -4 0 6 10 11 9 16 -5 27 -12 10 -12 12 -2
8 10 -4 9 -2 -2 8 -10 8 -18 22 -18 31 0 11 -4 15 -12 10 -9 -5 -9 -2 1 9 9
12 10 17 2 17 -7 0 -9 5 -6 10 4 6 1 9 -7 8 -7 -2 -12 2 -11 8 1 7 -6 19 -17
29 -10 9 -16 23 -13 31 3 8 0 14 -7 14 -6 0 -8 5 -5 10 3 6 -1 10 -9 10 -9 0
-16 5 -16 11 0 5 6 7 13 3 6 -4 1 5 -12 19 -17 19 -22 32 -17 52 4 14 11 23
16 20 6 -3 10 1 10 10 0 9 4 14 9 11 11 -7 43 28 34 37 -6 6 11 11 29 8 4 0 4
7 1 16 -5 12 -2 15 10 10 11 -4 14 -2 11 8 -3 8 3 16 15 20 12 3 19 10 16 15
-3 5 4 11 15 15 11 4 17 11 14 17 -5 7 -1 9 9 5 11 -4 14 -2 11 8 -3 7 3 16
15 20 11 3 23 15 26 26 4 11 11 16 18 13 7 -4 9 -4 5 1 -4 4 -3 14 3 22 9 10
8 13 0 13 -7 0 -10 4 -6 9 3 5 -1 16 -9 24 -8 8 -12 17 -9 21 4 3 -1 6 -11 6
-9 0 -14 5 -11 10 3 6 1 10 -5 10 -7 0 -10 6 -8 13 6 15 -37 58 -48 49 -5 -4
-2 2 6 13 8 11 11 17 6 13 -10 -8 -36 14 -29 25 2 4 -1 7 -7 7 -6 0 -8 5 -5
10 5 8 -14 14 -36 12 -4 -1 -5 7 -2 17 3 12 -4 28 -19 43 -12 12 -22 27 -20
31 1 5 -2 6 -8 2 -5 -3 -10 -1 -10 5 0 6 -5 8 -10 5 -6 -4 -10 -3 -9 2 3 17
-1 33 -8 32 -20 -3 -34 2 -28 10 6 10 -13 26 -30 26 -5 0 -10 5 -10 11 0 7
-17 28 -37 47 -20 19 -34 37 -31 41 6 6 -13 10 -31 7 -5 -1 -6 5 -3 13 4 9 -1
17 -13 21 -11 3 -27 19 -37 35 -9 16 -20 27 -25 24 -13 -8 -48 15 -48 32 0 8
-4 13 -9 10 -4 -3 -17 2 -27 10 -10 9 -12 13 -4 9 8 -4 6 1 -4 9 -23 18 -40
21 -30 5 4 -7 -2 -7 -17 1 -13 7 -21 9 -17 6 9 -11 -25 -43 -40 -38 -7 2 -12
1 -11 -4 4 -22 -2 -33 -21 -39 -11 -4 -18 -10 -15 -14 2 -4 -7 -14 -20 -21
-13 -7 -22 -17 -19 -22 3 -4 -8 -16 -25 -26 -17 -9 -31 -20 -31 -23 0 -3 -7
-14 -16 -25 -8 -10 -12 -12 -8 -4 4 8 -4 4 -17 -10 -13 -13 -25 -28 -25 -32
-1 -5 -2 -11 -3 -14 0 -4 -9 0 -18 7 -11 10 -14 10 -9 2 12 -21 -5 -15 -25 9
-11 11 -19 18 -19 13 0 -4 -9 3 -21 16 -11 13 -17 17 -13 9 5 -10 1 -9 -14 3
-11 11 -26 16 -32 12 -6 -3 -10 -3 -9 2 3 17 -1 33 -8 32 -18 -3 -31 2 -53 21
-13 12 -30 18 -37 16 -7 -3 -12 0 -10 7 1 7 -4 11 -11 9 -7 -1 -15 5 -18 13
-3 8 -10 12 -15 9 -5 -3 -9 0 -9 5 0 6 -6 10 -12 8 -7 -1 -12 4 -10 12 3 12 0
12 -12 2 -11 -9 -16 -9 -22 0 -5 8 -3 9 6 4 8 -5 11 -4 6 3 -4 6 -13 9 -21 5
-8 -3 -15 0 -15 7 0 6 -4 8 -10 5 -6 -3 -10 2 -11 12 0 10 -3 13 -5 6 -3 -7
-12 -9 -20 -6 -7 3 -11 9 -8 14 3 5 -2 6 -10 3 -9 -3 -16 -1 -16 6 0 6 -4 9
-9 5 -5 -3 -16 2 -24 10 -12 11 -17 12 -20 2 -3 -7 -6 -5 -6 5 -1 10 -4 17 -8
16 -13 -3 -58 14 -65 26 -5 8 -8 7 -8 -2 0 -10 -4 -9 -16 3 -9 9 -22 14 -29
11 -8 -3 -16 2 -19 9 -3 8 -12 12 -21 9 -8 -3 -15 -2 -15 3 0 5 -7 10 -15 11
-8 1 -22 3 -30 4 -8 1 -15 5 -15 10 0 5 -4 7 -9 4 -11 -7 -41 3 -41 13 0 3 12
15 28 25 15 9 19 15 9 12 -11 -3 -16 -2 -12 4 3 6 13 10 21 10 8 0 14 7 14 15
0 8 6 14 13 12 6 -1 11 4 10 11 -2 6 2 12 7 12 6 0 23 12 38 28 15 15 41 38
57 51 17 13 22 21 12 18 -11 -4 -16 -3 -12 3 3 6 13 10 21 10 8 0 14 7 14 16
0 8 5 12 10 9 6 -3 10 0 10 8 0 8 6 17 14 20 24 10 8 44 -19 41 -13 -1 -26 4
-29 12 -5 12 -10 13 -27 3 -19 -10 -21 -9 -16 6 5 11 3 15 -5 12 -7 -2 -21 0
-30 4 -10 6 -19 5 -23 -1 -5 -8 -11 -7 -21 1 -7 6 -12 15 -9 18 2 4 -2 8 -10
8 -8 0 -11 -5 -8 -10 3 -6 1 -7 -6 -3 -6 4 -24 10 -38 12 -15 3 -30 10 -34 16
-4 7 -9 7 -13 -1 -5 -8 -13 -8 -27 -1 -10 6 -19 7 -19 3 0 -4 -7 2 -16 13 -15
18 -15 18 -10 0 5 -14 3 -16 -6 -8 -18 14 -50 18 -67 8 -10 -6 -12 -5 -7 2 4
7 2 12 -3 12 -19 0 -26 2 -43 11 -12 7 -18 6 -18 -1 0 -7 -6 -8 -19 -1 -10 6
-21 8 -24 4 -4 -3 -14 0 -24 8 -15 12 -16 12 -8 -1 6 -12 5 -12 -5 -3 -7 6
-19 9 -26 6 -8 -3 -14 -1 -14 4 0 5 -7 10 -15 10 -8 0 -15 -5 -15 -11 0 -6 -5
-4 -10 4 -7 11 -10 11 -10 2 0 -7 -5 -10 -10 -7 -6 4 -7 12 -3 18 4 8 1 7 -9
-1 -10 -8 -19 -9 -22 -3 -3 5 -19 8 -36 7 -16 -1 -30 3 -30 8 0 7 -3 7 -8 0
-4 -7 -15 -8 -27 -4 -11 4 -30 4 -42 -1 -16 -6 -23 -5 -23 3 0 6 -3 8 -6 5 -4
-3 -16 -2 -27 4 -14 8 -18 8 -13 0 5 -7 -1 -11 -14 -11 -14 0 -19 4 -14 13 5
8 2 8 -9 -2 -14 -11 -17 -11 -17 0 0 9 -3 10 -8 4 -8 -12 -53 -15 -46 -3 3 4
0 8 -5 8 -6 0 -11 -6 -11 -12 0 -8 -3 -9 -8 -3 -9 13 -52 15 -52 3 0 -5 -4 -6
-10 -3 -5 3 -10 1 -10 -6 0 -8 -5 -7 -17 2 -15 13 -15 12 -3 -10 11 -21 10
-23 -3 -18 -10 4 -18 -1 -22 -13 -3 -11 -12 -19 -18 -17 -7 1 -11 -4 -9 -10 1
-7 -3 -13 -9 -13 -5 0 -7 -4 -4 -10 3 -6 -1 -7 -9 -4 -10 4 -16 1 -16 -10 0
-8 -9 -20 -20 -26 -12 -7 -18 -16 -13 -23 4 -7 -2 -5 -12 3 -11 9 -16 10 -11
3 4 -8 2 -13 -4 -13 -6 0 -8 -4 -5 -10 3 -5 -1 -10 -10 -10 -9 0 -13 -4 -10
-10 3 -5 1 -10 -5 -10 -6 0 -8 -4 -5 -10 4 -6 -1 -7 -11 -3 -13 5 -15 3 -9 -7
6 -10 4 -12 -8 -7 -9 3 -16 3 -16 -1 3 -21 -2 -32 -13 -26 -8 5 -9 2 -5 -10 4
-10 3 -15 -3 -11 -6 3 -15 3 -22 -1 -17 -11 -58 -11 -58 -1 0 4 -9 3 -20 -3
-14 -8 -20 -8 -20 0 0 8 -6 8 -20 0 -11 -6 -20 -7 -20 -3 0 9 -88 8 -97 -1 -4
-3 -12 -1 -20 5 -8 7 -13 8 -13 1 0 -6 -13 -7 -34 -2 -19 4 -40 4 -47 -1 -7
-4 -19 -3 -26 3 -9 7 -13 7 -13 0 0 -6 -13 -7 -34 -2 -19 4 -40 4 -47 -1 -7
-4 -19 -3 -26 3 -9 7 -13 7 -13 0 0 -6 -13 -7 -34 -2 -19 4 -40 4 -47 -1 -7
-4 -19 -3 -26 3 -9 7 -13 7 -13 0 0 -6 -13 -7 -34 -2 -19 4 -40 4 -47 -1 -7
-4 -19 -3 -26 3 -7 6 -13 7 -13 2 0 -5 -16 -9 -35 -9 -19 0 -35 4 -35 8 0 4
-9 3 -20 -3 -14 -8 -20 -8 -20 0 0 8 -6 8 -20 0 -14 -8 -20 -8 -20 0 0 8 -6 8
-20 0 -14 -8 -20 -8 -20 0 0 8 -6 8 -20 0 -14 -8 -20 -8 -20 0 0 8 -6 8 -20 0
-11 -6 -20 -7 -20 -2 0 5 -20 6 -45 2 -25 -4 -45 -3 -45 1 0 4 -8 6 -17 4 -63
-13 -90 -12 -90 0 0 8 5 13 11 12 6 -1 12 8 14 21 2 12 10 22 18 22 8 0 14 5
14 11 0 5 5 7 12 3 7 -5 9 -2 5 8 -3 10 3 19 19 27 13 6 24 15 24 21 0 5 7 10
15 10 8 0 15 7 15 16 0 18 25 46 34 37 3 -4 6 -1 6 6 0 7 5 9 10 6 6 -3 10 -2
10 4 0 5 12 22 26 38 22 24 23 29 10 39 -11 8 -194 11 -656 11 l-641 0 5 -29z
m-184 -1472 c0 -2 -8 -10 -17 -17 -16 -13 -17 -12 -4 4 13 16 21 21 21 13z
m5150 -16 c0 -5 -5 -10 -11 -10 -5 0 -7 5 -4 10 3 6 8 10 11 10 2 0 4 -4 4
-10z m605 -1970 c-3 -5 -12 -10 -18 -10 -7 0 -6 4 3 10 19 12 23 12 15 0z"/>
<path d="M5809 2583 c-13 -16 -12 -17 4 -4 9 7 17 15 17 17 0 8 -8 3 -21 -13z"/>
</g>
</svg>
